<?xml version="1.0" encoding="utf-8"?>
<!-- Generator: Adobe Illustrator 28.1.0, SVG Export Plug-In . SVG Version: 6.00 Build 0)  -->
<svg version="1.1" id="Layer_1" xmlns="http://www.w3.org/2000/svg" xmlns:xlink="http://www.w3.org/1999/xlink" x="0px" y="0px"
	 viewBox="0 0 1000 1000" style="enable-background:new 0 0 1000 1000;" xml:space="preserve">
<style type="text/css">
	.st0{fill-rule:evenodd;clip-rule:evenodd;}
</style>
<path class="st0" d="M329.2,418c-6.3,7.5-16.5,13.4-26.6,12.6c-1.3-10.1,3.7-20.9,9.5-27.6c6.3-7.7,17.4-13.2,26.4-13.6
	C339.5,400,335.4,410.3,329.2,418z M338.3,432.6c-8.9-0.5-17.1,2.7-23.6,5.3c-4.2,1.7-7.8,3.1-10.5,3.1c-3.1,0-6.8-1.5-11-3.2
	c-5.5-2.2-11.8-4.7-18.4-4.6c-15.1,0.2-29.1,8.8-36.8,22.4c-15.8,27.3-4.1,67.6,11.2,89.8c7.5,11,16.5,23,28.3,22.6
	c5.2-0.2,8.9-1.8,12.8-3.4c4.5-1.9,9.1-3.9,16.3-3.9c7,0,11.4,1.9,15.7,3.8c4,1.7,7.9,3.4,13.7,3.3c12.2-0.2,19.9-11,27.4-22
	c8.1-11.8,11.6-23.3,12.2-25l0.1-0.2c0,0-0.1-0.1-0.3-0.1c-2.7-1.2-23.4-10.7-23.6-36.1c-0.2-21.3,16.4-32.1,19-33.8
	c0.2-0.1,0.3-0.2,0.3-0.2C360.5,434.7,344,433,338.3,432.6z M423.1,566.7V402h61.7c31.9,0,54.1,22,54.1,54.1
	c0,32.1-22.7,54.3-55,54.3h-35.3v56.3H423.1z M448.6,423.5H478c22.2,0,34.8,11.8,34.8,32.6c0,20.8-12.7,32.7-34.9,32.7h-29.3V423.5z
	 M623.2,546.9c-6.8,12.9-21.6,21-37.7,21c-23.7,0-40.3-14.2-40.3-35.5c0-21.1,16-33.3,45.7-35.1l31.9-1.9v-9.1
	c0-13.4-8.8-20.7-24.4-20.7c-12.9,0-22.3,6.7-24.2,16.8h-23c0.7-21.3,20.8-36.9,47.9-36.9c29.2,0,48.2,15.3,48.2,39.1v82h-23.6
	v-19.8H623.2z M592.4,548.4c-13.6,0-22.3-6.5-22.3-16.6c0-10.4,8.3-16.4,24.3-17.3l28.4-1.8v9.3
	C622.8,537.4,609.7,548.4,592.4,548.4z M725.8,573.1c-10.2,28.8-21.9,38.3-46.8,38.3c-1.9,0-8.2-0.2-9.7-0.6v-19.8
	c1.6,0.2,5.5,0.4,7.5,0.4c11.3,0,17.6-4.8,21.5-17.1l2.3-7.3l-43.3-119.9H684l30.1,97.3h0.5l30.1-97.3h26L725.8,573.1z"/>
</svg>
