<?xml version="1.0" encoding="utf-8"?>
<!-- Generator: Adobe Illustrator 27.2.0, SVG Export Plug-In . SVG Version: 6.00 Build 0)  -->
<svg version="1.1" id="Layer_1" xmlns="http://www.w3.org/2000/svg" xmlns:xlink="http://www.w3.org/1999/xlink" x="0px" y="0px"
	 viewBox="0 0 1000 1000" style="enable-background:new 0 0 1000 1000;" xml:space="preserve">
<style type="text/css">
	.st0{fill-rule:evenodd;clip-rule:evenodd;fill:#3B3B3B;}
	.st1{fill-rule:evenodd;clip-rule:evenodd;fill:#59529F;}
	.st2{fill-rule:evenodd;clip-rule:evenodd;fill:#532D7B;}
	.st3{fill-rule:evenodd;clip-rule:evenodd;fill:#2A4B8F;}
	.st4{fill-rule:evenodd;clip-rule:evenodd;fill:#75348A;}
	.st5{fill-rule:evenodd;clip-rule:evenodd;fill:#146CB5;}
	.st6{fill-rule:evenodd;clip-rule:evenodd;fill:#2B2E69;}
</style>
<g>
	<g>
		<path class="st0" d="M211.2,523.5c-0.3,2.4-0.9,4.5-1.8,6.1c-0.9,1.6-2.1,3-3.4,4c-1.3,1-2.8,1.6-4.4,2.1
			c-1.6,0.4-3.4,0.6-5.2,0.6c-1.8,0-3.4-0.1-4.9-0.6c-1.5-0.4-2.8-1-4-2.1c-1-0.9-1.9-2.1-2.5-3.7c-0.6-1.5-0.6-3.4-0.4-5.5
			c0.1-1.3,0.6-2.8,1.2-4.6c0.6-1.8,1.5-3.6,2.7-5.2l5.6,2.1c-0.4,0.9-0.7,1.6-1,2.2c-0.3,0.6-0.6,1.2-0.7,1.8
			c-0.1,0.6-0.3,1.2-0.4,1.6c-0.1,0.6-0.3,1.2-0.3,1.6c-0.1,1.2-0.1,2.2,0.1,3.1c0.3,0.9,0.7,1.5,1.3,2.1c0.6,0.4,1.3,0.9,2.1,1
			c0.7,0.1,1.6,0.3,2.4,0.3c2.1,0,3.7-0.6,4.9-1.6c1.2-1,1.9-2.8,2.2-5.2l4.1-32.3h6.6L211.2,523.5z"/>
		<path class="st0" d="M229.2,525.1c-0.1,0.9-0.3,1.6-0.3,2.1c-0.1,0.4-0.1,0.6-0.3,0.6c-1.5,0-3-0.1-4.3-0.3
			c-1.3-0.1-2.5-0.6-3.5-1.2c-1-0.6-1.8-1.3-2.4-2.4c-0.4-1-0.6-2.2-0.4-3.6l3.7-28.5h6.6l-3.4,26.3c-0.1,0.7-0.1,1.5,0,2.1
			c0.1,0.6,0.4,1,0.7,1.3s0.7,0.4,1.2,0.6c0.4,0.1,1,0.1,1.5,0.1c0.4,0,0.7,0.3,0.7,0.7C229.4,523.5,229.4,524,229.2,525.1z"/>
		<path class="st0" d="M245.6,511.1c-0.9,0-1.6,0.3-2.4,0.7c-0.7,0.4-1.3,1-1.8,1.9c-0.6,0.7-1,1.6-1.3,2.7c-0.4,1-0.7,2.1-0.9,3.4
			c0.9,0.9,1.6,1.5,2.4,1.9c0.7,0.4,1.6,0.6,2.7,0.6c1.3,0,2.5-0.4,3.4-1.5c0.9-0.9,1.5-2.2,1.6-3.7c0.3-1.9,0-3.4-0.6-4.5
			C248.1,511.7,247.1,511.1,245.6,511.1z M228.6,527.8c-0.7,0-1.3-0.1-1.8-0.6c-0.4-0.4-0.4-1-0.4-1.9c0.1-0.9,0.3-1.6,0.7-2.1
			c0.3-0.4,0.7-0.7,1.3-0.7h1.3c0.6,0,1.2-0.1,1.5-0.3c0.4-0.3,0.7-0.6,1-0.9c0.3-0.4,0.4-0.9,0.6-1.3c0.1-0.6,0.4-1.2,0.6-1.9
			c0.3-1.8,0.9-3.4,1.6-4.9c0.7-1.5,1.6-2.8,2.8-3.9c1-1,2.4-1.9,3.7-2.5c1.5-0.6,3-0.9,4.6-0.9c1.8,0,3.4,0.3,4.7,0.9
			c1.3,0.6,2.5,1.3,3.2,2.4c0.9,1,1.5,2.2,1.8,3.6c0.3,1.3,0.3,2.8,0.1,4.5c-0.1,0.6-0.1,1.2-0.3,1.8c-0.1,0.6-0.3,1-0.4,1.6
			c0.3,0.6,0.9,1.2,1.6,1.5c0.7,0.4,1.6,0.6,2.5,0.6c0.4,0,0.7,0.3,0.7,0.7c0.1,0.4,0.1,1.2,0,2.1c-0.1,0.6-0.1,1-0.1,1.5
			c0,0.3-0.1,0.6-0.1,0.9c0,0.1-0.1,0.3-0.1,0.3s0,0.1-0.1,0.1c-0.6,0-1,0-1.8-0.1c-0.6-0.1-1.2-0.3-1.9-0.4c-0.6-0.3-1.2-0.6-1.8-1
			c-0.6-0.4-1-1-1.5-1.6c-1.3,1.2-2.7,2.1-4.1,2.7c-1.5,0.6-3,0.7-4.6,0.7c-1.5,0-2.8-0.1-4-0.6c-1.2-0.4-2.4-1.2-3.5-2.2
			c-0.9,1-1.9,1.6-2.8,2.1c-0.9,0.3-2.1,0.6-3.7,0.6h-1.3V527.8z"/>
		<path class="st0" d="M259.5,527.8c-0.9,0-1.5-0.1-1.8-0.6c-0.3-0.4-0.4-1-0.4-1.9c0.1-0.9,0.3-1.6,0.7-2.1
			c0.3-0.4,0.7-0.7,1.3-0.7h4.4c-0.4-0.9-0.7-1.8-1-2.8c-0.1-0.9-0.3-1.9-0.1-2.8c0.3-1.8,0.7-3.4,1.6-4.9c0.9-1.5,1.9-2.5,3.1-3.4
			c1.2-0.9,2.7-1.6,4.1-2.1c1.5-0.4,3.1-0.7,4.7-0.7c1.2,0,2.5,0.1,3.7,0.3c1.3,0.1,2.4,0.4,3.1,0.7l-1.8,5.2
			c-0.4-0.1-1.2-0.3-2.1-0.4c-0.9-0.1-1.9-0.1-2.8-0.1c-0.7,0-1.3,0.1-2.2,0.3c-0.7,0.1-1.5,0.4-2.1,0.9c-0.7,0.4-1.2,1-1.8,1.6
			c-0.4,0.7-0.9,1.6-0.9,2.7c-0.3,1.8,0.1,3.1,1.2,4.2c1,1,2.5,1.5,4.6,1.5h6.6l-0.7,5.5h-21.5V527.8z"/>
		<path class="st0" d="M295.6,491.3c-0.3-0.9-0.4-1.6-0.4-2.4c0.1-1.5,0.9-2.7,1.9-3.6c1-0.9,2.5-1.3,4.1-1.3c0.4,0,0.9,0,1.3,0.1
			c0.4,0,1,0.1,1.5,0.3l-1,2.7c-0.6-0.3-1.3-0.3-2.1-0.3c-0.9,0-1.6,0.1-2.1,0.6c-0.4,0.4-0.7,0.9-0.9,1.6s0.1,1.3,0.6,1.8
			c0.4,0.4,1.2,0.6,2.1,0.6h3l-0.3,2.8h-9.9l0.3-2.8h1.9V491.3z M294.7,497.2h6.6l-3,22.7h-6.6L294.7,497.2z M309.8,524.5
			c-0.9,1.2-2.1,1.9-3.4,2.5c-1.3,0.4-3,0.7-4.9,0.7H286l0.7-5.5h12.7c1.9,0,3.4-0.4,4.3-1.3c0.9-0.9,1.5-2.4,1.8-4.6l3.1-24.6h6.6
			l-3.2,25.8c-0.1,1.5,0.1,2.5,1,3.4c0.9,0.9,2.1,1.3,3.8,1.3c0.4,0,0.9,0.1,1,0.6c0.1,0.4,0.1,1,0.1,2.1c-0.1,1.2-0.3,1.9-0.4,2.2
			c-0.1,0.3-0.3,0.6-0.4,0.6c-0.6,0-1.3,0-2.1-0.1s-1.5-0.3-2.1-0.6c-0.6-0.3-1.2-0.6-1.8-1C310.7,525.7,310.2,525.1,309.8,524.5z"
			/>
		<path class="st0" d="M316.9,522.3c1,0,1.9-0.1,2.5-0.3c0.7-0.1,1.2-0.4,1.6-0.9c0.4-0.4,0.7-0.9,0.9-1.3c0.1-0.6,0.3-1.2,0.4-1.9
			l3.2-26h6.6l-3.4,27.2c-0.1,1.5-0.6,2.8-1,3.9c-0.4,1-1.2,1.9-2.1,2.7c-0.9,0.7-2.1,1.3-3.5,1.6c-1.5,0.3-3.1,0.6-5.2,0.6
			c-0.7,0-1.3-0.1-1.8-0.6c-0.4-0.4-0.4-1-0.4-1.9c0.1-0.9,0.3-1.6,0.7-2.1C316,522.6,316.4,522.3,316.9,522.3z"/>
		<path class="st0" d="M360.7,540c0.1-1,0.6-1.8,1.3-2.5c0.7-0.6,1.6-1,2.7-1c1,0,1.8,0.3,2.4,1c0.6,0.6,0.7,1.5,0.6,2.5
			c-0.1,1-0.6,1.9-1.3,2.5c-0.7,0.6-1.6,1-2.5,1c-1,0-1.8-0.3-2.4-1C360.8,541.8,360.5,541.1,360.7,540z M352.1,540
			c0.1-1,0.6-1.8,1.3-2.5c0.7-0.6,1.6-1,2.7-1c1,0,1.8,0.3,2.4,1c0.6,0.6,0.7,1.5,0.6,2.5c-0.1,1-0.6,1.9-1.3,2.5
			c-0.7,0.6-1.6,1-2.5,1c-1,0-1.8-0.3-2.4-1C352.3,541.8,352,541.1,352.1,540z M352.9,520.2c-0.3,2.2,0.4,4,2.1,5.1
			c1.6,1.2,4.1,1.6,7.7,1.6c1.6,0,3.1-0.1,4.4-0.3s2.4-0.4,3.4-0.7c0.9-0.3,1.6-0.7,2.2-1.2c0.4-0.4,0.7-0.9,0.9-1.2
			c0-0.6-0.3-1.2-1.2-1.9c-0.9-0.7-2.2-1.5-4-2.5c-1.9-1-3.4-2.2-4.3-3.4c-0.9-1.2-1.2-2.8-1-4.6c0.1-1.2,0.6-2.4,1.2-3.6
			c0.6-1,1.5-2.1,2.5-3c1-0.9,2.4-1.5,3.8-1.9c1.5-0.4,3.2-0.7,5-0.7c0.4,0,0.9,0,1.3,0c0.4,0,1,0.1,1.6,0.1c0.6,0.1,1,0.1,1.6,0.3
			c0.4,0.1,0.9,0.3,1.3,0.4l-1.8,4.9c-0.4-0.1-1-0.3-1.8-0.4c-0.7-0.1-1.6-0.1-2.4-0.1c-0.6,0-1.2,0-1.8,0.1
			c-0.6,0.1-1.3,0.3-1.9,0.6c-0.6,0.3-1.2,0.6-1.5,1c-0.4,0.4-0.6,1-0.7,1.6c0,0.4,0,0.9,0.3,1.3c0.3,0.4,0.6,0.9,1,1.3
			c0.4,0.4,1,0.9,1.6,1.2c0.6,0.4,1.2,0.7,1.9,1c0.9,0.4,1.6,1,2.4,1.5c0.7,0.4,1.3,1,1.9,1.6c0.4,0.6,0.9,1.2,1.2,1.9
			c0.3,0.7,0.3,1.5,0.3,2.4c-0.1,1.5-0.7,2.7-1.6,3.9c-0.9,1.2-2.1,2.2-3.5,3c-1.5,0.9-3.4,1.5-5.5,1.9c-2.1,0.4-4.6,0.7-7.2,0.7
			c-2.8,0-5.2-0.1-7.2-0.6c-2.1-0.4-3.8-1.2-5.3-2.1c-1.5-1-2.4-2.2-3.1-3.7c-0.6-1.5-0.7-3.4-0.4-5.5c0.1-1.2,0.6-2.5,1.2-4.3
			c0.6-1.6,1.5-3.4,2.7-5.2l5.6,2.2c-0.6,1.2-1.2,2.4-1.8,3.7C353.3,518.1,352.9,519.1,352.9,520.2z"/>
		<path class="st0" d="M392.4,522.3c1.6,0,2.8-0.3,3.5-1c0.9-0.6,1.3-1.8,1.6-3.6l0.1-1.2c0.1-1.6-0.1-3-1.2-3.7
			c-1-0.9-2.5-1.3-4.6-1.3h-4.6l0.7-5.5h5.9c2.1,0,3.7,0.3,5.2,0.7c1.5,0.4,2.5,1.2,3.4,1.9c0.9,0.9,1.5,1.8,1.8,3
			c0.3,1.2,0.4,2.4,0.3,3.7l-0.4,3.3c-0.4,3.3-1.3,5.7-2.8,7c-1.5,1.5-3.8,2.2-6.9,2.2h-12l0.7-5.5H392.4z"/>
		<path class="st0" d="M416,516.7c-0.3,1.8,0,3.3,0.7,4.2c0.7,0.9,1.9,1.3,3.7,1.3h3.8l0.7-5.7c0.1-0.7,0.1-1.5,0-2.1
			c0-0.6-0.3-1.2-0.4-1.8c-0.3-0.6-0.6-0.9-1.2-1.2c-0.4-0.3-1.2-0.4-1.8-0.4c-0.6,0-1.2,0.1-1.8,0.3c-0.6,0.1-1.2,0.6-1.6,1
			c-0.4,0.4-0.9,1-1.3,1.8C416.3,514.9,416,515.7,416,516.7z M416.9,530.9c1,0,1.8,0,2.7-0.1c0.7-0.1,1.5-0.3,1.9-0.4
			c0.6-0.3,1-0.6,1.3-1c0.3-0.4,0.4-1,0.6-1.6h-4.6c-1.6,0-3.1-0.1-4.3-0.6c-1.3-0.4-2.4-1-3.2-1.8c-0.9-0.9-1.5-1.9-1.9-3.3
			c-0.4-1.3-0.4-2.8-0.3-4.6c0.1-1.5,0.6-3,1.3-4.5c0.6-1.5,1.5-2.7,2.7-3.9c1.2-1.2,2.5-1.9,4-2.7c1.5-0.6,3.2-1,5.2-1
			c1.5,0,2.8,0.3,4,0.7c1.2,0.4,2.4,1.2,3.2,1.9c0.9,0.9,1.5,1.9,1.9,3.3c0.4,1.3,0.4,2.8,0.3,4.6l-0.7,6.1h3.5
			c0.4,0,0.7,0.1,0.9,0.6c0.1,0.4,0.1,1.2,0.1,2.1c-0.1,1-0.3,1.8-0.4,2.2c-0.1,0.3-0.3,0.4-0.4,0.4h-4.4c-0.4,1.5-1,2.8-1.8,4
			c-0.7,1-1.8,1.9-3,2.7c-1.2,0.7-2.5,1.2-4,1.5c-1.5,0.3-3.1,0.4-4.9,0.4c-1,0-2.1,0-3.1-0.1c-1-0.1-2.1-0.3-3-0.6l1.6-5.2
			c0.7,0.1,1.5,0.3,2.4,0.4C415.1,530.9,416,530.9,416.9,530.9z"/>
		<path class="st0" d="M448.9,511.1c-0.6,0-1.2,0-1.8,0.1c-0.6,0.1-1.2,0.1-1.6,0.3c-0.6,0.1-1,0.3-1.5,0.4
			c-0.4,0.1-0.7,0.3-0.9,0.4c1.2,1,2.4,2.2,3.1,3.4c0.9,1.2,1.6,2.2,2.2,3.4c0.4-0.3,1-0.6,1.6-1c0.6-0.4,1-0.9,1.5-1.3
			c0.4-0.4,0.9-0.9,1-1.5c0.3-0.4,0.4-1,0.6-1.6c0-0.3,0-0.6-0.1-0.9c-0.1-0.3-0.3-0.6-0.7-0.9c-0.3-0.3-0.7-0.4-1.3-0.6
			C450.4,511.1,449.8,511.1,448.9,511.1z M434.5,527.8c-0.9,0-1.5-0.3-1.8-0.7c-0.3-0.4-0.4-1-0.4-1.9c0.1-0.9,0.3-1.6,0.7-2.1
			c0.3-0.4,0.7-0.7,1.3-0.7h5.2c0.9,0,1.8,0,2.5-0.1c0.7-0.1,1.3-0.3,1.8-0.4c-0.7-0.7-1.3-1.5-1.8-2.1c-0.6-0.6-1-1.2-1.6-1.6
			c-0.4-0.4-1-1-1.6-1.5c-0.6-0.4-1.3-1-2.2-1.5c0-0.3,0.1-0.7,0.3-1.3c0.1-0.6,0.3-1.2,0.4-1.8c0.1-0.6,0.3-1.2,0.6-1.6
			c0.1-0.4,0.3-0.9,0.4-1.2c0.6-0.3,1.3-0.7,2.2-1c0.9-0.3,1.8-0.7,2.8-1c1-0.3,2.1-0.6,3.1-0.7s2.1-0.3,3.1-0.3
			c1.6,0,3,0.1,4.3,0.4c1.3,0.3,2.5,0.7,3.4,1.5c0.9,0.6,1.6,1.3,2.2,2.4c0.4,0.9,0.6,2.1,0.4,3.3c-0.1,0.9-0.4,1.6-0.7,2.5
			c-0.4,0.9-1,1.6-1.6,2.4c-0.6,0.7-1.5,1.5-2.2,2.2c-0.9,0.7-1.8,1.3-2.8,1.8c0.4,0.1,0.9,0.1,1.6,0.3c0.7,0,1.3,0,1.8,0h4.9
			c0.4,0,0.7,0.1,0.9,0.6c0.1,0.4,0.1,1.2,0.1,2.1c-0.1,1.2-0.3,1.9-0.4,2.2c-0.1,0.3-0.3,0.4-0.4,0.4h-6.8c-1.8,0-3.1-0.1-4.4-0.6
			c-1.2-0.3-2.2-0.7-2.8-1.3c-1.2,0.6-2.7,1-4.1,1.3c-1.5,0.3-3.1,0.6-4.6,0.6h-3.7V527.8z"/>
		<path class="st0" d="M477.1,527.8c-1.6,0-3-0.3-4.1-0.7c-1.2-0.6-1.9-1.3-2.4-2.2c-0.9,1-2.1,1.8-3.7,2.2c-1.6,0.4-3.5,0.7-6,0.7
			c-0.7,0-1.3-0.1-1.8-0.6c-0.4-0.4-0.4-1-0.4-1.9c0.1-0.9,0.3-1.6,0.7-2.1c0.4-0.4,0.7-0.7,1.3-0.7c1.8,0,3.1-0.3,4-0.9
			c0.9-0.6,1.3-1.8,1.6-3.6l1-7.6h6.6l-1,8.2c0,0.6-0.1,1,0,1.5c0,0.4,0.1,0.9,0.4,1.2c0.1,0.3,0.6,0.6,1,0.9c0.4,0.1,1,0.3,1.8,0.3
			c1.2,0,1.9-0.3,2.5-0.9c0.6-0.6,1-1.8,1.2-3.7l1-7.6h6.6l-1,8.2c0,0.6-0.1,1,0,1.5c0,0.4,0.1,0.9,0.3,1.2c0.1,0.3,0.6,0.6,1,0.9
			c0.4,0.1,1,0.3,1.8,0.3c1.2,0,2.1-0.3,2.5-0.9c0.6-0.6,0.9-1.8,1.2-3.6l1.5-11.9h6.6l-1.5,11.7c-0.1,1.3,0.1,2.5,1,3.4
			c0.9,0.9,2.1,1.3,3.8,1.3c0.4,0,0.9,0.1,1,0.6c0.1,0.4,0.1,1,0.1,2.1c-0.1,1.2-0.3,1.9-0.4,2.2c-0.1,0.3-0.3,0.6-0.4,0.6
			c-0.6,0-1.3,0-1.9-0.1c-0.7-0.1-1.3-0.3-2.1-0.4c-0.7-0.3-1.3-0.6-1.9-1c-0.6-0.4-1-0.9-1.3-1.5c-0.9,1-1.8,1.8-3,2.4
			c-1.2,0.4-2.5,0.7-4,0.7c-1.6,0-3-0.3-4.1-0.7c-1-0.6-1.9-1.3-2.2-2.2C482.4,526.7,480.1,527.8,477.1,527.8z"/>
		<path class="st0" d="M504.6,522.3c1,0,1.9-0.1,2.5-0.3c0.7-0.1,1.2-0.4,1.6-0.9c0.4-0.4,0.7-0.9,0.9-1.3c0.1-0.6,0.3-1.2,0.4-1.9
			l3.2-26h6.6l-3.4,27.2c-0.1,1.5-0.6,2.8-1,3.9c-0.4,1-1.2,1.9-2.1,2.7c-0.9,0.7-2.1,1.3-3.5,1.6c-1.5,0.3-3.1,0.6-5.2,0.6
			c-0.7,0-1.5-0.1-1.8-0.6c-0.4-0.4-0.4-1-0.4-1.9c0.1-0.9,0.3-1.6,0.7-2.1C503.5,522.6,504,522.3,504.6,522.3z"/>
		<path class="st0" d="M533.1,491.8l-4.6,36h-6.6l4.6-36H533.1z"/>
		<path class="st0" d="M553.7,497.6c0.1-1,0.6-1.8,1.3-2.5c0.7-0.6,1.6-1,2.7-1s1.8,0.3,2.4,1c0.6,0.6,0.7,1.5,0.6,2.5
			c-0.1,1-0.6,1.9-1.3,2.5c-0.7,0.6-1.6,1-2.5,1c-1,0-1.8-0.3-2.4-1C553.9,499.4,553.6,498.5,553.7,497.6z M546.9,536.3
			c-1,0-1.9,0-2.7-0.1s-1.5-0.3-1.9-0.4l1.5-5.2c0.4,0,0.7,0.1,1,0.1c0.3,0,0.7,0.1,1,0.1c1.2,0,2.2-0.3,2.8-1
			c0.6-0.7,1-1.9,1.2-3.4l2.5-20.3h6.6l-2.1,16.4h4.1c0.4,0,0.7,0.1,1,0.6c0.1,0.4,0.1,1.2,0.1,2.1c-0.1,1-0.3,1.8-0.4,2.1
			c-0.1,0.3-0.3,0.6-0.4,0.6h-4.9c-0.3,1.8-0.7,3.1-1.3,4.3c-0.6,1-1.3,1.9-2.2,2.7c-0.9,0.6-1.8,1-2.8,1.3
			C549,536.1,548,536.3,546.9,536.3z"/>
		<path class="st0" d="M561.4,527.8c-0.7,0-1.3-0.1-1.8-0.6c-0.4-0.4-0.6-1-0.4-1.9c0.1-0.9,0.3-1.6,0.7-2.1
			c0.3-0.4,0.7-0.7,1.3-0.7h14.2c1.6,0,3-0.3,3.7-1c0.7-0.7,1.3-1.9,1.5-3.4l0.1-1.3c0.4-3.4-1.3-5.1-5.3-5.1h-10.5l0.7-5.5l14.9-14
			l4,4.2l-10.6,9.9h3.8c1.9,0,3.5,0.3,4.9,0.7c1.3,0.4,2.4,1.2,3.1,1.9c0.7,0.9,1.3,1.8,1.6,3c0.3,1.2,0.3,2.4,0.1,3.7l-0.4,3.3
			c-0.4,3.3-1.3,5.7-3,7.2c-1.6,1.5-3.8,2.1-6.9,2.1h-15.8V527.8z"/>
		<path class="st0" d="M591.1,536.3c-1,0-1.9,0-2.7-0.1s-1.5-0.3-1.9-0.4l1.5-5.2c0.4,0,0.7,0.1,1,0.1c0.3,0,0.7,0.1,1,0.1
			c1.2,0,2.2-0.3,2.8-1c0.6-0.7,1-1.9,1.2-3.4l2.7-20.3h6.6l-2.1,16.4h4.1c0.4,0,0.7,0.1,0.9,0.6c0.1,0.4,0.1,1.2,0.1,2.1
			c-0.1,1-0.3,1.8-0.4,2.1c-0.1,0.3-0.3,0.6-0.4,0.6h-4.9c-0.3,1.8-0.7,3.1-1.3,4.3c-0.6,1-1.3,1.9-2.2,2.7c-0.9,0.6-1.8,1-2.8,1.3
			C593.1,536.1,592.1,536.3,591.1,536.3z"/>
		<path class="st0" d="M622.5,511.1c-0.9,0-1.6,0.3-2.4,0.7c-0.7,0.4-1.3,1-1.8,1.9c-0.6,0.7-1,1.6-1.3,2.7c-0.4,1-0.7,2.1-0.9,3.4
			c0.9,0.9,1.6,1.5,2.4,1.9c0.7,0.4,1.6,0.6,2.7,0.6c1.3,0,2.5-0.4,3.4-1.5c0.9-0.9,1.5-2.2,1.6-3.7c0.3-1.9,0-3.4-0.6-4.5
			C625,511.7,624,511.1,622.5,511.1z M605.5,527.8c-0.7,0-1.5-0.1-1.8-0.6c-0.4-0.4-0.4-1-0.4-1.9c0.1-0.9,0.3-1.6,0.7-2.1
			c0.3-0.4,0.7-0.7,1.3-0.7h1.3c0.6,0,1.2-0.1,1.5-0.3c0.4-0.3,0.7-0.6,1-0.9c0.3-0.4,0.4-0.9,0.6-1.3c0.1-0.6,0.4-1.2,0.6-1.9
			c0.3-1.8,0.9-3.4,1.6-4.9c0.7-1.5,1.6-2.8,2.8-3.9c1-1,2.4-1.9,3.7-2.5c1.5-0.6,3-0.9,4.6-0.9c1.8,0,3.4,0.3,4.7,0.9
			c1.3,0.6,2.5,1.3,3.2,2.4c0.9,1,1.5,2.2,1.8,3.6c0.3,1.3,0.3,2.8,0.1,4.5c-0.1,0.6-0.1,1.2-0.3,1.8c-0.1,0.6-0.3,1-0.4,1.6
			c0.3,0.6,0.9,1.2,1.6,1.5c0.7,0.4,1.6,0.6,2.5,0.6c0.4,0,0.7,0.3,0.7,0.7c0.1,0.4,0.1,1.2,0,2.1c-0.1,0.6-0.1,1-0.1,1.5
			c0,0.3-0.1,0.6-0.1,0.9c0,0.1-0.1,0.3-0.1,0.3s0,0.1-0.1,0.1c-0.6,0-1,0-1.8-0.1c-0.6-0.1-1.2-0.3-1.9-0.4c-0.6-0.3-1.2-0.6-1.8-1
			c-0.6-0.4-1-1-1.5-1.6c-1.3,1.2-2.7,2.1-4.1,2.7c-1.5,0.6-3,0.7-4.6,0.7c-1.5,0-2.8-0.1-4-0.6c-1.2-0.4-2.4-1.2-3.5-2.2
			c-0.9,1-1.9,1.6-2.8,2.1c-0.9,0.3-2.1,0.6-3.7,0.6h-1.3V527.8z"/>
		<path class="st0" d="M636.2,522.3c1,0,1.8-0.1,2.5-0.3c0.7-0.1,1.2-0.4,1.6-0.9c0.4-0.4,0.7-0.9,0.9-1.3c0.1-0.6,0.3-1.2,0.4-1.9
			l3.2-26h6.6l-3.4,27.2c-0.1,1.5-0.6,2.8-1,3.9c-0.4,1-1.2,1.9-2.1,2.7c-0.9,0.7-2.1,1.3-3.5,1.6c-1.5,0.3-3.1,0.6-5.2,0.6
			c-0.7,0-1.5-0.1-1.8-0.6c-0.4-0.4-0.4-1-0.4-1.9c0.1-0.9,0.3-1.6,0.7-2.1C635.3,522.6,635.8,522.3,636.2,522.3z"/>
		<path class="st0" d="M664.7,491.8l-4.6,36h-6.6l4.6-36H664.7z"/>
		<path class="st0" d="M164.9,557.8c-1.2-0.4-2.4-0.7-3.5-1c-1.2-0.1-2.5-0.3-3.7-0.3c-0.7,0-1.5,0-2.1,0.1
			c-0.7,0.1-1.3,0.3-1.9,0.6c-0.6,0.3-1,0.7-1.3,1.2c-0.4,0.4-0.6,1-0.7,1.8c-0.1,0.6,0,1.2,0.1,1.6c0.1,0.4,0.6,0.9,1,1.3
			c0.4,0.4,1,0.9,1.9,1.2c0.7,0.4,1.6,0.9,2.8,1.3c1.3,0.6,2.5,1.2,3.7,1.8c1,0.6,2.1,1.3,2.8,2.2c0.7,0.9,1.3,1.8,1.6,2.8
			c0.3,1,0.4,2.4,0.1,3.9c-0.1,1.8-0.7,3.3-1.6,4.6c-0.9,1.3-1.9,2.4-3.2,3.3c-1.3,0.9-2.8,1.5-4.3,1.9c-1.6,0.4-3.2,0.6-4.9,0.6
			c-1.6,0-3.2-0.1-5-0.4c-1.8-0.3-3.5-0.7-5.2-1.3l2.1-5.8c1.5,0.6,3.1,1.2,4.6,1.5c1.5,0.3,3,0.4,4.1,0.4c1.9,0,3.4-0.3,4.6-1
			c1-0.6,1.8-1.6,1.9-3c0.1-0.6,0-1.2-0.1-1.8c-0.1-0.4-0.6-1-1-1.5c-0.4-0.4-1.2-0.9-1.9-1.3c-0.7-0.4-1.8-0.9-2.8-1.3
			c-1.3-0.6-2.5-1.2-3.5-1.8c-1-0.6-1.9-1.3-2.7-2.2c-0.7-0.9-1.3-1.8-1.6-2.8c-0.3-1-0.4-2.2-0.1-3.6c0.3-1.8,0.7-3.3,1.6-4.6
			c0.9-1.3,1.9-2.4,3.2-3.1c1.3-0.7,2.7-1.3,4.1-1.8c1.5-0.3,3-0.6,4.4-0.6c1.6,0,3.2,0.1,4.9,0.3c1.5,0.1,3,0.6,4.1,0.9
			L164.9,557.8z"/>
		<path class="st0" d="M185.1,574.5c-1.2,0-2.2,0-3.2,0.1c-1,0.1-1.9,0.3-2.8,0.6s-1.5,0.7-2.1,1.3c-0.4,0.6-0.9,1.2-0.9,2.1
			c-0.1,1,0.1,1.9,0.7,2.5s1.5,0.9,2.7,0.9c1,0,1.8-0.1,2.7-0.4c0.7-0.3,1.5-0.7,1.9-1.3c0.6-0.6,1-1.2,1.3-1.9
			c0.3-0.7,0.4-1.3,0.6-2.1l0.3-1.8H185.1z M186.7,569.6c0.1-1.3-0.1-2.4-1-3.1c-0.9-0.7-2.2-1.2-4.1-1.2c-0.9,0-1.9,0.1-3.1,0.3
			s-2.4,0.6-3.7,1l-0.6-4.9c1.2-0.4,2.5-0.7,4.1-1s3.1-0.4,4.4-0.4c4.1,0,7.1,0.9,8.9,2.5c1.8,1.8,2.4,4.2,1.9,7.3l-1.3,10.8
			c-0.1,0.9-0.1,1.9-0.3,3c-0.1,1-0.1,2.1,0,2.8h-6.2c-0.1-0.4-0.1-0.9-0.1-1.6c0-0.6,0-1.2,0-1.6h-0.1c-0.7,1.2-1.9,2.1-3.2,2.7
			c-1.3,0.7-3,1-4.6,1c-1.2,0-2.2-0.1-3.2-0.4c-1-0.3-2.1-0.7-2.8-1.3c-0.9-0.6-1.5-1.5-1.8-2.5c-0.4-1-0.4-2.2-0.3-3.7
			c0.3-1.8,0.9-3.4,1.8-4.6c1-1.2,2.2-2.1,3.8-2.7c1.6-0.6,3.4-1,5.5-1.3s4.1-0.3,6.2-0.3V569.6z"/>
		<path class="st0" d="M215.2,586.5l0.4-3.4h-0.1c-0.9,1.3-1.9,2.2-3.5,3c-1.5,0.7-3.1,1-4.7,1c-1.5,0-2.8-0.3-3.8-0.7
			c-1.2-0.4-2.1-1-2.8-1.9c-0.7-0.7-1.2-1.8-1.5-3c-0.3-1.2-0.3-2.4-0.1-3.9l2.2-17h6.9l-1.8,14.5c-0.1,1-0.1,1.9-0.1,2.8
			c0,0.7,0.1,1.5,0.4,2.1c0.3,0.6,0.7,1,1.3,1.3c0.6,0.3,1.3,0.4,2.2,0.4c0.7,0,1.3-0.1,2.1-0.4c0.7-0.3,1.3-0.6,1.9-1.2
			c0.6-0.6,1-1.3,1.5-2.2c0.4-0.9,0.7-2.1,0.9-3.4l1.8-14h6.9l-3.2,25.8h-6.8V586.5z"/>
		<path class="st0" d="M236,573.5c-0.1,1.2-0.1,2.2-0.1,3.3c0.1,1,0.3,1.9,0.7,2.7c0.4,0.7,0.9,1.3,1.6,1.8c0.7,0.4,1.5,0.6,2.5,0.6
			c1,0,1.9-0.1,2.8-0.6s1.6-1,2.2-1.8c0.6-0.7,1.2-1.6,1.6-2.7c0.4-1,0.7-2.1,0.9-3.3c0.1-1.2,0.1-2.2,0-3.3c-0.1-1-0.4-1.9-0.9-2.7
			c-0.4-0.7-1-1.3-1.8-1.6c-0.7-0.3-1.6-0.6-2.5-0.6c-1,0-1.9,0.1-2.7,0.6c-0.9,0.4-1.5,1-2.1,1.8c-0.6,0.7-1,1.6-1.3,2.7
			C236.4,571.3,236.1,572.3,236,573.5z M250.8,550.5h6.9l-4.6,36h-6.8l0.4-3.3h-0.1c-1.2,1.3-2.5,2.4-4,3c-1.5,0.6-3,0.9-4.4,0.9
			c-1.8,0-3.2-0.3-4.6-1c-1.3-0.7-2.2-1.6-3-2.8c-0.7-1.2-1.3-2.7-1.5-4.3c-0.3-1.6-0.3-3.4,0-5.2c0.3-1.9,0.7-3.7,1.5-5.4
			c0.7-1.6,1.6-3.1,2.7-4.3c1-1.2,2.4-2.1,3.8-2.8c1.5-0.7,3.1-1,4.9-1c1.5,0,2.8,0.3,4.1,0.7c1.3,0.6,2.2,1.5,3.1,2.7h0.1
			L250.8,550.5z"/>
		<path class="st0" d="M271.3,550.6l-0.7,6h-6.9l0.7-6H271.3z M269.9,560.5l-3.2,25.8h-6.9l3.2-25.8H269.9z"/>
		<path class="st0" d="M296.1,565.7h5c1.9,0,3.4-0.3,4.6-1c1-0.7,1.8-1.8,1.9-3.4c0.1-0.9,0-1.5-0.1-2.1c-0.3-0.6-0.6-0.9-1-1.2
			c-0.4-0.3-1-0.4-1.6-0.6c-0.6-0.1-1.3-0.1-2.1-0.1h-5.3L296.1,565.7z M294.1,580.7h5.8c0.9,0,1.8,0,2.5-0.1
			c0.7-0.1,1.5-0.3,2.1-0.7c0.6-0.3,1-0.7,1.5-1.5c0.3-0.6,0.6-1.3,0.7-2.2c0.1-0.9,0-1.6-0.3-2.2c-0.3-0.6-0.7-1-1.2-1.5
			c-0.6-0.3-1.2-0.6-2.1-0.7c-0.9-0.1-1.8-0.1-2.8-0.1h-4.9L294.1,580.7z M290.9,551.4h14.5c1.5,0,3,0.1,4.1,0.4
			c1.2,0.3,2.4,0.9,3.1,1.5c0.9,0.7,1.5,1.6,1.9,2.7c0.4,1,0.4,2.4,0.3,4c-0.3,2.2-1,4-2.2,5.2c-1.2,1.2-2.7,2.1-4.3,2.7v0.1
			c0.9,0.3,1.6,0.6,2.4,1c0.7,0.4,1.3,0.9,1.8,1.6c0.4,0.6,0.9,1.5,1,2.4c0.1,0.9,0.3,2.1,0.1,3.3c-0.1,1.3-0.6,2.5-1.2,3.7
			c-0.6,1.2-1.3,2.2-2.4,3.1c-1,0.9-2.4,1.6-3.7,2.1c-1.5,0.4-3.1,0.7-5.2,0.7h-14.8L290.9,551.4z"/>
		<path class="st0" d="M335,586.5l0.4-3.4h-0.1c-0.9,1.3-1.9,2.2-3.5,3c-1.5,0.7-3.1,1-4.7,1c-1.5,0-2.8-0.3-3.8-0.7
			c-1.2-0.4-2.1-1-2.8-1.9c-0.7-0.7-1.2-1.8-1.5-3c-0.3-1.2-0.3-2.4-0.1-3.9l2.2-17h6.9l-1.8,14.5c-0.1,1-0.1,1.9-0.1,2.8
			c0,0.7,0.1,1.5,0.4,2.1c0.3,0.6,0.7,1,1.3,1.3s1.3,0.4,2.2,0.4c0.7,0,1.3-0.1,2.1-0.4s1.3-0.6,1.9-1.2c0.6-0.6,1-1.3,1.5-2.2
			c0.4-0.9,0.7-2.1,0.9-3.4l1.8-14h6.9l-3.2,25.8H335V586.5z"/>
		<path class="st0" d="M366.6,566.6c-1.3-0.4-2.5-0.9-3.5-1c-1.2-0.1-2.2-0.3-3.2-0.3c-1,0-1.8,0.1-2.5,0.4c-0.6,0.3-1,0.9-1.2,1.6
			c-0.1,0.7,0.1,1.3,0.7,1.8c0.6,0.4,1.8,1,3.5,1.5c1.3,0.4,2.5,0.9,3.4,1.3c1,0.4,1.8,1,2.5,1.8c0.6,0.6,1.2,1.5,1.3,2.2
			c0.3,0.9,0.3,1.8,0.1,3c-0.1,1.5-0.6,2.7-1.5,3.7c-0.7,1-1.6,1.8-2.8,2.4c-1,0.6-2.2,1-3.5,1.3c-1.3,0.3-2.7,0.4-3.8,0.4
			c-1.6,0-3.2-0.1-4.9-0.4c-1.6-0.3-3.1-0.7-4.4-1.3l2.1-5.2c1.3,0.6,2.8,1,4.1,1.3c1.5,0.3,2.7,0.4,3.7,0.4c1.3,0,2.4-0.1,3.1-0.4
			s1.2-0.9,1.3-1.8c0.1-0.7-0.1-1.3-0.9-1.9c-0.7-0.4-2.1-1-4-1.6c-2.7-0.9-4.4-1.9-5.6-3.3c-1-1.2-1.5-2.8-1.3-4.6
			c0.1-1.3,0.6-2.5,1.3-3.6c0.7-1,1.5-1.8,2.5-2.5c1-0.6,2.2-1.2,3.4-1.5c1.2-0.3,2.5-0.4,3.7-0.4c1.3,0,2.8,0.1,4.3,0.3
			c1.5,0.3,2.8,0.6,4,1L366.6,566.6z"/>
		<path class="st0" d="M383.7,550.6l-0.7,6H376l0.7-6H383.7z M382.4,560.5l-3.2,25.8h-6.9l3.2-25.8H382.4z"/>
		<path class="st0" d="M396,560.5l-0.4,3.4h0.1c0.9-1.3,1.9-2.2,3.5-3c1.5-0.7,3.1-1,4.7-1c1.5,0,2.8,0.1,3.8,0.6
			c1,0.4,2.1,1,2.8,1.9c0.7,0.9,1.2,1.8,1.5,3c0.3,1.2,0.3,2.4,0.1,3.9l-2.2,17H403l1.8-14.5c0.1-1,0.1-1.9,0.1-2.8
			c0-0.9-0.1-1.6-0.4-2.1c-0.3-0.6-0.7-1-1.3-1.3c-0.6-0.3-1.3-0.4-2.2-0.4c-0.7,0-1.3,0.1-2.1,0.3c-0.6,0.3-1.3,0.6-1.9,1.2
			c-0.6,0.6-1.2,1.3-1.6,2.2c-0.4,0.9-0.7,2.1-0.9,3.3l-1.8,14h-6.9l3.2-25.8h6.9V560.5z"/>
		<path class="st0" d="M430.8,564.7c-1.6,0-3,0.6-4.3,1.6c-1.2,1-2.1,2.5-2.5,4.3h11.1c0.3-1.8,0-3.3-0.9-4.3
			C433.6,565.3,432.4,564.7,430.8,564.7z M423.6,575.6c0,1.2,0.1,2.1,0.6,3c0.3,0.7,0.9,1.3,1.6,1.9c0.7,0.4,1.5,0.9,2.5,1
			c0.9,0.3,1.9,0.3,3.1,0.3c1,0,2.1,0,3.1-0.1s2.1-0.4,3.1-0.7l0.1,5.1c-1.2,0.3-2.4,0.6-3.7,0.7c-1.3,0.1-2.7,0.3-4.1,0.3
			c-2.4,0-4.3-0.3-6-1c-1.8-0.6-3.1-1.6-4.1-2.8s-1.8-2.5-2.2-4.3c-0.4-1.6-0.6-3.4-0.3-5.5c0.3-1.9,0.7-3.7,1.6-5.4
			c0.7-1.6,1.8-3.1,3.1-4.3c1.2-1.2,2.7-2.1,4.4-2.8c1.6-0.6,3.5-1,5.5-1c1.9,0,3.5,0.3,4.9,0.9c1.3,0.6,2.5,1.5,3.2,2.5
			c0.9,1,1.3,2.4,1.6,4c0.3,1.6,0.3,3.3,0,5.2l-0.3,2.8h-17.7V575.6z"/>
		<path class="st0" d="M463.3,566.6c-1.3-0.4-2.5-0.9-3.5-1c-1.2-0.1-2.2-0.3-3.2-0.3s-1.8,0.1-2.5,0.4c-0.6,0.3-1,0.9-1.2,1.6
			c-0.1,0.7,0.1,1.3,0.7,1.8c0.6,0.4,1.8,1,3.5,1.5c1.3,0.4,2.5,0.9,3.4,1.3c1,0.4,1.8,1,2.5,1.8c0.6,0.6,1.2,1.5,1.3,2.2
			c0.3,0.9,0.3,1.8,0.1,3c-0.1,1.5-0.6,2.7-1.5,3.7c-0.7,1-1.6,1.8-2.8,2.4c-1,0.6-2.2,1-3.5,1.3c-1.3,0.3-2.7,0.4-3.8,0.4
			c-1.6,0-3.2-0.1-4.9-0.4c-1.6-0.3-3.1-0.7-4.4-1.3l2.1-5.2c1.3,0.6,2.8,1,4.1,1.3c1.5,0.3,2.7,0.4,3.7,0.4c1.3,0,2.4-0.1,3.1-0.4
			c0.7-0.3,1.2-0.9,1.3-1.8c0.1-0.7-0.1-1.3-0.9-1.9c-0.7-0.4-2.1-1-4-1.6c-2.7-0.9-4.4-1.9-5.6-3.3c-1-1.2-1.5-2.8-1.3-4.6
			c0.1-1.3,0.6-2.5,1.3-3.6c0.7-1,1.5-1.8,2.5-2.5c1-0.6,2.2-1.2,3.4-1.5c1.2-0.3,2.5-0.4,3.7-0.4c1.3,0,2.8,0.1,4.3,0.3
			c1.5,0.3,2.8,0.6,4,1L463.3,566.6z"/>
		<path class="st0" d="M486.4,566.6c-1.3-0.4-2.5-0.9-3.5-1c-1.2-0.1-2.2-0.3-3.2-0.3s-1.8,0.1-2.5,0.4c-0.6,0.3-1,0.9-1.2,1.6
			c-0.1,0.7,0.1,1.3,0.7,1.8c0.6,0.4,1.8,1,3.5,1.5c1.3,0.4,2.5,0.9,3.4,1.3c1,0.4,1.8,1,2.5,1.8c0.6,0.6,1.2,1.5,1.3,2.2
			c0.3,0.9,0.3,1.8,0.1,3c-0.1,1.5-0.6,2.7-1.5,3.7c-0.7,1-1.6,1.8-2.8,2.4c-1,0.6-2.2,1-3.5,1.3c-1.3,0.3-2.7,0.4-3.8,0.4
			c-1.6,0-3.2-0.1-4.9-0.4c-1.6-0.3-3.1-0.7-4.4-1.3l2.1-5.2c1.3,0.6,2.8,1,4.1,1.3c1.5,0.3,2.7,0.4,3.7,0.4c1.3,0,2.4-0.1,3.1-0.4
			s1.2-0.9,1.3-1.8c0.1-0.7-0.1-1.3-0.9-1.9c-0.7-0.4-2.1-1-4-1.6c-2.7-0.9-4.4-1.9-5.6-3.3c-1-1.2-1.5-2.8-1.3-4.6
			c0.1-1.3,0.6-2.5,1.3-3.6c0.7-1,1.5-1.8,2.5-2.5c1-0.6,2.2-1.2,3.4-1.5c1.2-0.3,2.5-0.4,3.7-0.4c1.3,0,2.8,0.1,4.3,0.3
			c1.5,0.3,2.8,0.6,4,1L486.4,566.6z"/>
		<path class="st0" d="M531.7,557.8c-0.9-0.3-1.9-0.6-3-0.9s-2.1-0.3-3.1-0.3c-1.8,0-3.5,0.3-5,1c-1.5,0.6-2.8,1.5-3.8,2.7
			c-1,1-1.9,2.4-2.5,4c-0.6,1.5-1,3.1-1.3,4.8c-0.1,1.6-0.1,3.1,0.1,4.6c0.3,1.5,0.7,2.8,1.6,3.9c0.7,1.2,1.8,2.1,3.1,2.7
			c1.3,0.6,2.8,1,4.7,1c1.3,0,2.5-0.1,3.5-0.3c1-0.3,2.1-0.6,3.1-1l0.4,5.5c-1.3,0.6-2.7,0.9-4.1,1.2c-1.5,0.3-3,0.3-4.6,0.3
			c-2.7,0-4.9-0.4-6.9-1.3c-2.1-0.9-3.7-2.1-5-3.7c-1.3-1.6-2.2-3.4-2.8-5.7c-0.6-2.2-0.6-4.6-0.3-7.3c0.3-2.7,1-5.1,2.1-7.3
			c1-2.2,2.5-4.2,4.1-5.8c1.8-1.6,3.7-2.8,6-3.7c2.4-0.9,4.9-1.3,7.5-1.3c1.5,0,3,0.1,4.3,0.3c1.3,0.3,2.5,0.6,3.7,1L531.7,557.8z"
			/>
		<path class="st0" d="M548.1,564.7c-1.6,0-3,0.6-4.3,1.6c-1.2,1-2.1,2.5-2.5,4.3h11.1c0.3-1.8,0-3.3-0.9-4.3
			C550.9,565.3,549.7,564.7,548.1,564.7z M540.7,575.6c0,1.2,0.1,2.1,0.6,3c0.3,0.7,0.9,1.3,1.6,1.9c0.7,0.4,1.5,0.9,2.5,1
			c0.9,0.3,1.9,0.3,3.1,0.3c1,0,2.1,0,3.1-0.1s2.1-0.4,3.1-0.7l0.1,5.1c-1.2,0.3-2.4,0.6-3.7,0.7c-1.3,0.1-2.7,0.3-4.1,0.3
			c-2.4,0-4.3-0.3-6-1c-1.8-0.6-3.1-1.6-4.1-2.8s-1.8-2.5-2.2-4.3c-0.4-1.6-0.6-3.4-0.3-5.5c0.3-1.9,0.7-3.7,1.6-5.4
			c0.7-1.6,1.8-3.1,3.1-4.3c1.2-1.2,2.7-2.1,4.4-2.8c1.6-0.6,3.5-1,5.5-1c1.9,0,3.5,0.3,4.9,0.9c1.3,0.6,2.5,1.5,3.2,2.5
			c0.9,1,1.3,2.4,1.6,4c0.3,1.6,0.3,3.3,0,5.2l-0.3,2.8h-17.7V575.6z"/>
		<path class="st0" d="M572.3,560.5l-0.4,3.4h0.1c0.9-1.3,1.9-2.2,3.5-3c1.5-0.7,3.1-1,4.7-1c1.5,0,2.8,0.1,3.8,0.6
			c1,0.4,2.1,1,2.8,1.9c0.7,0.9,1.2,1.8,1.5,3c0.3,1.2,0.3,2.4,0.1,3.9l-2.2,17h-6.9l1.8-14.5c0.1-1,0.1-1.9,0.1-2.8
			c0-0.9-0.1-1.6-0.4-2.1c-0.3-0.6-0.7-1-1.3-1.3c-0.6-0.3-1.3-0.4-2.2-0.4c-0.7,0-1.3,0.1-2.1,0.3c-0.6,0.3-1.3,0.6-1.9,1.2
			c-0.6,0.6-1.2,1.3-1.6,2.2c-0.4,0.9-0.7,2.1-0.9,3.3l-1.8,14h-6.9l3.2-25.8h6.9V560.5z"/>
		<path class="st0" d="M593.3,560.5h4l0.9-6.9h6.9l-0.9,6.9h5.3l-0.7,5.2h-5.3l-1.5,11.5c-0.1,0.9-0.1,1.6-0.1,2.1
			c0,0.6,0.1,0.9,0.3,1.2c0.1,0.3,0.4,0.4,0.7,0.6c0.3,0.1,0.9,0.1,1.5,0.1c0.4,0,0.7,0,1.2,0c0.3,0,0.7-0.1,1.2-0.1l-0.6,5.2
			c-0.6,0-1.3,0.1-2.2,0.1c-0.7,0-1.6,0-2.4,0c-1.6,0-3-0.1-3.8-0.4c-0.9-0.3-1.6-0.7-2.1-1.5c-0.4-0.6-0.7-1.3-0.9-2.4
			c-0.1-0.9,0-2.1,0.1-3.3l1.8-13.4h-4L593.3,560.5z"/>
		<path class="st0" d="M624.5,564.7c-1.6,0-3,0.6-4.3,1.6c-1.2,1-2.1,2.5-2.5,4.3h11.1c0.3-1.8,0-3.3-0.9-4.3
			C627.2,565.3,626,564.7,624.5,564.7z M617.2,575.6c0,1.2,0.1,2.1,0.6,3c0.4,0.7,0.9,1.3,1.6,1.9c0.7,0.4,1.5,0.9,2.5,1
			c0.9,0.3,1.9,0.3,3.1,0.3c1,0,2.1,0,3.1-0.1c1-0.1,2.1-0.4,3.1-0.7l0.1,5.1c-1.2,0.3-2.4,0.6-3.7,0.7c-1.3,0.1-2.7,0.3-4.1,0.3
			c-2.4,0-4.3-0.3-6-1c-1.8-0.6-3.1-1.6-4.1-2.8c-1-1.2-1.8-2.5-2.2-4.3c-0.4-1.6-0.6-3.4-0.3-5.5c0.3-1.9,0.7-3.7,1.6-5.4
			c0.7-1.6,1.8-3.1,3.1-4.3c1.3-1.2,2.7-2.1,4.4-2.8c1.6-0.6,3.5-1,5.5-1c1.9,0,3.5,0.3,4.9,0.9c1.3,0.6,2.5,1.5,3.2,2.5
			c0.9,1,1.3,2.4,1.6,4c0.3,1.6,0.3,3.3,0,5.2l-0.3,2.8h-17.7V575.6z"/>
		<path class="st0" d="M656.4,565.4c-0.3,0-0.6-0.1-0.9-0.1c-0.3,0-0.6,0-1,0c-0.9,0-1.6,0.1-2.4,0.4c-0.7,0.3-1.5,0.7-2.2,1.5
			c-0.7,0.7-1.2,1.6-1.8,2.7c-0.4,1.2-0.7,2.5-1,4l-1.6,12.5h-6.8l3.2-25.8h6.8l-0.4,3.4h0.1c1.6-2.7,4-4,7.2-4c0.3,0,0.6,0,1,0
			c0.3,0,0.6,0,0.9,0L656.4,565.4z"/>
		<path class="st1" d="M831.4,518.7c-0.9,1.6-2.8,2.4-4.6,1.8c-3.4-1-6.6-2.1-9.9-3c-3.2-1-6.6-1.9-9.9-2.7
			c-6.6-1.6-13.3-3.3-19.9-4.5c-3.1-0.6-5.3-3.6-4.7-6.9c0.1-0.6,0.3-1.2,0.6-1.8c3.2-6,6.8-11.4,10.5-16.6
			c3.7-5.2,7.7-10.3,12-15.1c1.5-1.6,4-1.8,5.6-0.3c1.3,1.2,1.6,3.3,0.9,4.8c-3,5.7-6.1,11.1-9.3,16.6l-4.7,8.1
			c-0.1,0.3-0.4,0.7-0.6,1c4.4,1,8.7,2.4,13,3.9c3.4,1.2,6.8,2.5,10,4c3.2,1.5,6.6,3.1,9.7,4.9C831.9,514.3,832.6,516.7,831.4,518.7
			z"/>
		<path class="st2" d="M753.8,509.7c-0.6,0.3-1.2,0.4-1.8,0.6c-6.6,1.2-13.3,2.7-19.9,4.5c-3.2,0.9-6.6,1.8-9.9,2.7
			c-3.2,0.9-6.5,1.9-9.9,3c-2.1,0.6-4.3-0.6-4.9-2.7c-0.4-1.8,0.3-3.6,1.8-4.6c3.1-1.8,6.3-3.4,9.6-4.9c3.2-1.5,6.6-2.8,10-4
			c4.3-1.5,8.6-2.8,13-3.9c-0.1-0.3-0.4-0.7-0.6-1l-4.7-8.1c-3.2-5.4-6.3-10.9-9.3-16.6c-1-1.9-0.3-4.3,1.6-5.4
			c1.6-0.9,3.5-0.4,4.7,0.9c4.3,4.8,8.3,9.9,12,15.1c3.7,5.2,7.2,10.6,10.5,16.6C757.7,504.5,756.8,508.1,753.8,509.7z"/>
		<path class="st3" d="M794.8,584.2c-1.8,0.6-3.7,0-4.7-1.6c-2.2-3.6-4.3-7.3-6.5-11.1l-6.2-11.1l-6.2-11.1c-0.4-0.9-1-1.6-1.5-2.5
			c-0.4,0.9-1,1.6-1.5,2.5l-6.2,11.1l-6.3,11.1c-2.2,3.6-4.3,7.3-6.5,10.9c-1.2,1.8-3.5,2.4-5.5,1.2c-1.6-1-2.2-3-1.6-4.8
			c1.5-4,3.1-7.9,4.9-11.9c1.6-3.9,3.5-7.8,5.3-11.7c1.9-3.9,3.8-7.8,5.9-11.5c2.1-3.7,4.1-7.6,6.6-11.4v-0.1c1.8-2.7,5.3-3.4,8-1.6
			c0.6,0.4,1.2,1,1.6,1.6c2.5,3.9,4.6,7.6,6.6,11.5c1.9,3.9,4,7.6,5.8,11.5c1.9,3.9,3.7,7.8,5.3,11.7c1.6,4,3.4,7.9,5,11.9
			C797.9,581.3,796.9,583.5,794.8,584.2z"/>
		<path class="st4" d="M765.6,452.5c-0.9-3-1.3-6-1.6-9.1c-0.3-3-0.3-6-0.3-9.1c0.1-6,0.6-12.1,2.1-18.1c0.6-2.2,2.7-3.6,4.9-3
			c1.5,0.4,2.7,1.6,3,3c1.5,6,1.8,12.1,1.9,18.1c0,3-0.1,6-0.3,9.1c-0.3,3-0.7,6-1.6,9.1c-0.6,2.2-3,3.4-5.2,2.7
			C767,454.9,766.1,453.8,765.6,452.5z"/>
		<path class="st5" d="M845.6,545.6c-1.2,1.8-3.4,2.7-5.3,1.9c-4.3-1.5-8.4-3.1-12.7-4.5c-4.3-1.5-8.6-2.7-12.8-4
			c-4.1-1.2-8.3-2.2-12.4-3.1c2.8,5.1,5.6,10.2,8.6,15.4c2.7,4.6,5.2,9.4,7.7,14.3c2.4,4.9,4.9,9.7,6.8,14.8c1,2.4-0.1,4.9-2.4,6
			c-2.1,0.9-4.3,0-5.5-1.6L800.3,558c-5.8-9-11.5-18.4-16.2-28.2c-1.6-3.3-0.3-7.3,3-9.1c1.3-0.6,2.8-0.9,4.1-0.6
			c9.4,1.6,18.6,4,27.6,7.3c4.4,1.6,8.9,3.4,13.1,5.5c4.3,2.1,8.4,4.2,12.5,6.7C846.2,540.5,846.9,543.3,845.6,545.6z"/>
		<path class="st6" d="M755.3,529.4c-4.9,10-10.5,19.4-16.2,28.4l-17.1,26.9c-1.3,2.1-4.1,2.7-6.2,1.3c-1.9-1.2-2.5-3.6-1.8-5.5
			c2.1-5.1,4.4-10,6.8-14.9c2.5-4.8,5-9.6,7.7-14.3c2.8-5.2,5.8-10.3,8.4-15.4c-4.1,1-8.3,2.1-12.4,3.3c-4.3,1.2-8.6,2.5-12.8,4
			c-4.3,1.3-8.6,3-12.7,4.5c-2.4,0.9-4.9-0.4-5.8-2.7c-0.7-2.1,0.1-4.3,1.9-5.4c4-2.5,8.3-4.6,12.5-6.7c4.3-1.9,8.7-3.9,13.1-5.5
			c8.9-3.3,18.1-5.7,27.6-7.5c3.5-0.6,7.1,1.8,7.7,5.5C756,526.7,755.9,528.2,755.3,529.4z"/>
		<path class="st5" d="M830.4,554.1c3,1.5,5.5,3.3,8,5.2c2.5,1.9,4.7,4,6.9,6.4c4.4,4.5,8.4,9.4,11.7,15.1c1,1.9,0.3,4.5-1.6,5.5
			c-1.3,0.7-3,0.6-4.3-0.3c-5-3.6-9.6-7.8-13.9-11.9c-2.2-2.1-4.3-4.3-6.3-6.6c-2.1-2.4-4-4.8-5.6-7.5c-1.2-1.9-0.6-4.5,1.3-5.7
			C827.8,553.5,829.2,553.5,830.4,554.1z"/>
		<path class="st6" d="M714,559.7c-1.6,2.7-3.5,5.2-5.6,7.5c-2.1,2.2-4.1,4.5-6.3,6.7c-4.4,4.2-8.9,8.4-13.9,11.9
			c-1.8,1.3-4.3,0.9-5.6-1c-0.9-1.3-0.9-3-0.3-4.3c3.1-5.8,7.2-10.6,11.5-15.2c2.2-2.2,4.6-4.3,6.9-6.4c2.5-1.9,5-3.7,8-5.2
			c2.1-1,4.4-0.1,5.5,1.8C714.9,557.1,714.7,558.6,714,559.7z"/>
		<path class="st4" d="M801.8,448.3c-3.8,8.2-8.1,16.3-12.5,24c-4.4,7.9-9,15.7-13.9,23.3c-1.3,1.9-3.4,3.1-5.6,3.1
			c-2.4,0-4.4-1.3-5.6-3.1c-4.7-7.8-9.3-15.5-13.7-23.5c-2.2-3.9-4.4-7.9-6.5-11.9c-2.1-4-4.3-8.1-6.2-12.1c-1-2.2-0.1-4.9,2.1-6.1
			c1.9-1,4.3-0.3,5.5,1.3c2.8,3.6,5.3,7.3,8,11.1c2.7,3.7,5.2,7.5,7.7,11.2c3,4.5,5.9,9.1,8.9,13.7c3-4.6,5.9-9.3,8.9-13.7
			c5-7.6,10.2-14.9,15.8-22.1c1.5-1.9,4.3-2.4,6.3-0.7C802.1,444.1,802.5,446.5,801.8,448.3z"/>
	</g>
</g>
</svg>
