<?xml version="1.0" encoding="utf-8"?>
<!-- Generator: Adobe Illustrator 28.0.0, SVG Export Plug-In . SVG Version: 6.00 Build 0)  -->
<svg version="1.1" id="Layer_1" xmlns="http://www.w3.org/2000/svg" xmlns:xlink="http://www.w3.org/1999/xlink" x="0px" y="0px"
	 viewBox="0 0 1000 1000" style="enable-background:new 0 0 1000 1000;" xml:space="preserve">
<style type="text/css">
	.st0{fill:url(#SVGID_1_);}
	.st1{fill:#292929;}
</style>
<g>
	
		<linearGradient id="SVGID_1_" gradientUnits="userSpaceOnUse" x1="119.4118" y1="502" x2="880.5883" y2="502" gradientTransform="matrix(1 0 0 -1 0 1002)">
		<stop  offset="0" style="stop-color:#3BFF9D"/>
		<stop  offset="1" style="stop-color:#3BFFC8"/>
	</linearGradient>
	<path class="st0" d="M821.64,651.6H178.36c-32.52,0-58.95-26.43-58.95-59.03V407.35c0-32.52,26.43-58.95,58.95-58.95h643.28
		c32.6,0,58.95,26.43,58.95,58.95v185.23C880.59,625.17,854.16,651.6,821.64,651.6z"/>
	<g>
		<g>
			<polygon class="st1" points="778.15,444.59 737.48,600.04 737.32,600.35 769.09,600.35 809.91,444.59 			"/>
		</g>
		<g>
			<path class="st1" d="M274.4,533.02c-4.19,2.21-9.9,3.5-15.31,3.5c-11.42,0-17.9-1.83-18.58-11.04l0,0v-0.61
				c0-0.38-0.08-0.76-0.08-1.14v-26.81l0.08-3.2v-18.96h-0.08v-8.07l0.08-3.2V445.2l-28.33,3.73c19.19-3.73,30.16-18.89,30.16-33.97
				v-9.29H210.5v43.49l-1.83,0.53v80.58c1.07,22.62,15.99,36.1,40.44,36.1c8.68,0,18.2-1.98,25.51-5.26l0.15-0.08v-28.26
				L274.4,533.02z"/>
		</g>
		<g>
			<polygon class="st1" points="279.43,438.73 190.09,452.51 190.09,475.13 279.43,461.35 			"/>
		</g>
		<g>
			<polygon class="st1" points="279.43,471.86 190.09,485.64 190.09,507.27 279.43,493.49 			"/>
		</g>
		<g>
			<g>
				<path class="st1" d="M379.59,482.29c-1.29-25.13-16.98-40.06-42.58-40.06c-14.7,0-26.89,5.71-35.11,16.45
					c-8.23,10.74-12.57,26.5-12.57,45.62s4.34,34.96,12.57,45.62c8.23,10.74,20.41,16.45,35.11,16.45c25.59,0,41.36-15,42.58-40.29
					v37.93h31.84v-119.2l-31.84,4.87 M381.26,504.3c0,22.32-11.73,36.71-29.78,36.71c-18.66,0-29.78-13.71-29.78-36.71
					c0-23.08,11.12-36.94,29.78-36.94c9.06,0,16.68,3.5,21.94,10.21C378.52,484.2,381.26,493.41,381.26,504.3z"/>
			</g>
		</g>
		<g>
			<g>
				<path class="st1" d="M504.27,442.23c-25.67,0-41.36,14.93-42.58,40.14v-72.2l-31.84,4.87v148.98h31.84v-37.93
					c1.22,25.29,16.98,40.29,42.58,40.29c30.01,0,47.91-23.23,47.91-62.07S534.27,442.23,504.27,442.23z M489.79,541.01
					c-18.13,0-29.78-14.39-29.78-36.71c0-10.89,2.74-20.11,7.84-26.66c5.26-6.7,12.87-10.21,21.94-10.21
					c18.66,0,29.78,13.79,29.78,36.94C519.57,527.3,508.45,541.01,489.79,541.01z"/>
			</g>
			<g>
				<path class="st1" d="M638.77,442.23c-25.67,0-41.36,14.93-42.58,40.14v-72.2l-31.84,4.87v148.98h31.84v-37.93
					c1.22,25.29,16.98,40.29,42.58,40.29c30.01,0,47.91-23.23,47.91-62.07S668.78,442.23,638.77,442.23z M624.37,541.01
					c-18.13,0-29.78-14.39-29.78-36.71c0-10.89,2.74-20.11,7.84-26.66c5.26-6.7,12.87-10.21,21.94-10.21
					c18.66,0,29.78,13.79,29.78,36.94C654.15,527.3,643.03,541.01,624.37,541.01z"/>
			</g>
		</g>
		<g>
			<polygon class="st1" points="686.75,444.59 720.72,444.59 748.37,563.86 717.9,563.86 			"/>
		</g>
	</g>
</g>
</svg>
