<?xml version="1.0" encoding="utf-8"?>
<!-- Generator: Adobe Illustrator 27.2.0, SVG Export Plug-In . SVG Version: 6.00 Build 0)  -->
<svg version="1.1" id="Layer_1" xmlns="http://www.w3.org/2000/svg" xmlns:xlink="http://www.w3.org/1999/xlink" x="0px" y="0px"
	 viewBox="0 0 1000 1000" style="enable-background:new 0 0 1000 1000;" xml:space="preserve">
<path d="M205.4,469.2c-1.7,0-4.2,1.7-5.1,3.4c-2.7,5.1-4.7,10.7-7.3,15.9c-1.4,2.8-0.8,4.4,1.2,6.7c5.3,6,10.9,11.8,15.3,18.5
	c5.3,7.9,4.6,16.4-2.2,23c-5.1,5-11.1,9.5-17.6,12.6c-9.3,4.4-19.4,7.2-29.1,10.9c-1.3,0.5-3.4,2.2-3.6,3.4
	c-0.6,3.6,1.4,4.6,2.8,5.2c11.1,4.9,22.4,9.3,34.2,14.1c3.8-5.7,7.6-11,10.9-16.6c18-30.2,22-61.3,5.4-93.5
	C209.6,471.1,207.1,469.3,205.4,469.2L205.4,469.2z"/>
<path d="M604.2,430.1l-0.4-0.4c-5.4-5.4-14-5.4-19.4,0c-5.4,5.4-5.4,14,0,19.4l0.4,0.4c7.8,7.8,16.5,3,19.4,0
	C609.6,444.1,609.6,435.5,604.2,430.1z"/>
<path d="M547.2,430.6c-1.4,1.4-2.5,3-3.2,4.8l20.8,18c1-0.6,2-1.3,2.9-2.2l0.4-0.4c8.2-8.2,3.1-17.4,0-20.6
	c-5.7-5.7-14.9-5.7-20.6,0L547.2,430.6L547.2,430.6z"/>
<path d="M237.9,421.3c0,0-5.1,10.7-7.4,16.1c-0.9,2.2-1.6,4.8-1.4,7.2c0.9,19,1.6,38,3,56.9c1.4,19.3,10.9,33.4,28.8,41.5
	c12.5,5.7,25.7,8.3,39.3,9.1c17.1,1,34.2,1.5,51.4,1.6c28.5,0.2,56.7-1.8,84.6-7.4c8.6-1.1,35.5-8.1,40.1-10.6
	c5.2-2.8,4.9-2.2,10.2-0.8c12.8,3.2,46.6,2.5,56.4-0.4c6.5-1.9,12.5-3.5,13.9-7.9c6,9.4,9.3,14.2,19.6,13.3
	c10.3-0.9,11.2-1.4,21.3-3.7c8.4-1.9,14.7-7.3,17.2-15.5c1.6-5.1,1.4-7.5,1.8-11.3c1.6-13.5-0.5-26.2-8.3-37.5
	c-1.3-1.8-2-3.6-6.5-3.3c-1.4,0.1-3.4,2.1-4.3,3.8c-2.6,5-4.5,10.4-7,15.4c-1.4,2.8-0.8,4.8,1.4,6.9c4.7,4.3,9.1,8.7,15,14.7
	c-11.3,1.2-15.2,2.4-24.9,3.2c-9.8,0.8-27.6,0.6-32.6-8.2c-3.7-6.5-6-10.9-12-15.3c-9.9-7.3-26-7.3-39.4-0.4
	c-6.1,3.1-12.4,9.2-13.5,16.5c-0.5,3.2-1.6,5.9-5.2,6.9c-55.5,14.3-120.6,20.9-175.2,14.8c-13.9-1.6-27.7-3.9-40.9-9
	c-11.7-4.6-17-12.7-16.8-25.4c0.4-23.4,0.1-46.8,0-70.2c0,0,0.4-4.5-4.3-4.9C240.2,417,237.9,421.4,237.9,421.3L237.9,421.3z
	 M538.2,518.5l-45.4-0.5c0,0,3.4-17.9,21.8-18.6C541.2,498.3,538.2,518.5,538.2,518.5L538.2,518.5z"/>
<path d="M175.8,423.5c0,0,0.4-4.5-4.3-4.9c-1.8-0.2-4.2,4.2-4.2,4.2s-5.1,10.7-7.4,16.1c-0.9,2.2-1.6,4.8-1.4,7.2
	c0.4,9.3,0.8,18.7,1.3,28h0c0.6,13.3,1.3,26.5,1.9,39.8c0.4,8.2,0.8,16.3,1.3,24.6h7.5c1.8-9.3,5.1-18.4,5.3-27.6
	C175.8,498.5,175.8,440.3,175.8,423.5L175.8,423.5z"/>
<path d="M661,465.8c-4.1,4.3-7.1,9.2-9.1,14.4l63.4,52.6c3-1.9,5.9-4.1,8.5-6.9l1.2-1.3c24-25.1,8.3-52.3-1.3-61.5
	c-17.3-16.6-44.8-16-61.5,1.3L661,465.8L661,465.8z"/>
<path d="M800.1,536.4c23.7,0,42.9-19.2,42.9-42.9c0-23.7-19.2-42.9-42.9-42.9c-23.7,0-42.9,19.2-42.9,42.9
	C757.2,517.2,776.4,536.4,800.1,536.4z"/>
</svg>
