<?xml version="1.0" encoding="utf-8"?>
<!-- Generator: Adobe Illustrator 28.0.0, SVG Export Plug-In . SVG Version: 6.00 Build 0)  -->
<svg version="1.1" id="Layer_1" xmlns="http://www.w3.org/2000/svg" xmlns:xlink="http://www.w3.org/1999/xlink" x="0px" y="0px"
	 viewBox="0 0 1000 1000" style="enable-background:new 0 0 1000 1000;" xml:space="preserve">
<style type="text/css">
	.st0{fill:#1C32C2;}
</style>
<g id="Layer_2_00000041256811694975805450000007099345923475796107_">
	<g id="VISA_Logo">
		<path class="st0" d="M430.3,387.9L351,577.3h-51.8l-39-151.1c-2.4-9.3-4.4-12.7-11.6-16.6c-11.8-6.4-31.2-12.4-48.3-16.1l1.2-5.6
			h83.3c11.2,0,20.7,8.2,22.5,19.3l20.6,109.6l51.1-128.8H430.3z M633.2,515.5c0.2-50-69.1-52.7-68.6-75.1c0.1-6.8,6.6-14,20.8-15.9
			c16.6-1.6,33.3,1.3,48.3,8.4l8.6-40.2c-14.7-5.5-30.2-8.4-45.8-8.4c-48.4,0-82.5,25.7-82.8,62.6c-0.3,27.2,24.3,42.5,42.9,51.5
			c19.1,9.3,25.5,15.2,25.4,23.5c-0.1,12.7-15.2,18.3-29.3,18.5c-24.6,0.4-38.9-6.7-50.3-12l-8.9,41.5c11.4,5.2,32.6,9.8,54.5,10
			C599.3,580.3,632.9,554.8,633.2,515.5 M761.1,577.2h45.3l-39.5-189.3H725c-9.2-0.1-17.5,5.5-20.9,14l-73.5,175.3h51.4l10.2-28.3
			h62.9L761.1,577.2z M706.4,510.2l25.8-71.1l14.8,71.1H706.4z M500.3,387.9l-40.5,189.3h-49l40.5-189.3L500.3,387.9L500.3,387.9z"
			/>
	</g>
</g>
</svg>
